# xmcd CD database file
#
# Track frame offsets:
#	150
#	12970
#	32567
#	43345
#	58612
#	74637
#	89970
#	99895
#	110392
#	125812
#	147070
#	165520
#	179272
#	189910
#	202020
#	215712
#
# Disc length: 3032 seconds
#
# Revision: 7
# Processed by: cddbd v1.5.2PL0 Copyright (c) Steve Scherf et al.
# Submitted via: CDex 1.82
#
DISCID=ee0bd610
DTITLE=Varios - C-063 Country Festival Vol. 4
DYEAR=1992
DGENRE=Country
TTITLE0=Lynn Anderson - I Never Promised You A Rose Garden
TTITLE1=Tanya Tucker and Friends - Delta Dawn
TTITLE2=The Bellamy Brothers - Sugar Daddy
TTITLE3=Merle Haggard and Friends - Okie From Muskogee
TTITLE4=Anne Murray - Both Sides Now
TTITLE5=Don Williams - All I'm Missing Is You
TTITLE6=Charlie Rich and His All Stars - Before The Next Teardrop Falls
TTITLE7=Boxcar Willie - Wabash Cannonball
TTITLE8=Merle Haggard and Friends - Always Late
TTITLE9=Tanya Tucker and Friends - Baby I'm Yours
TTITLE10=Charlie Rich and His All Stars - Let's Take It Nice And Easy
TTITLE11=Anne Murray - Another Sleepless Night
TTITLE12=Don Williams - (Turn Out The Lights) And Love Me Tonight
TTITLE13=George Jones - She's My Rock
TTITLE14=Hoyt Axton and Tanya Tucker - Joy The World
TTITLE15=Carl Perkins - Lucille
EXTD=YEAR: 1992
EXTT0=
EXTT1=
EXTT2=
EXTT3=
EXTT4=
EXTT5=
EXTT6=
EXTT7=
EXTT8=
EXTT9=
EXTT10=
EXTT11=
EXTT12=
EXTT13=
EXTT14=
EXTT15=
PLAYORDER=
